<?xml version="1.0" standalone="no"?><svg xmlns="http://www.w3.org/2000/svg" viewBox="0 0 1440 320"><path fill="#181361" fill-opacity="1" d="M0,288L18.5,261.3C36.9,235,74,181,111,165.3C147.7,149,185,171,222,165.3C258.5,160,295,128,332,112C369.2,96,406,96,443,90.7C480,85,517,75,554,90.7C590.8,107,628,149,665,154.7C701.5,160,738,128,775,128C812.3,128,849,160,886,160C923.1,160,960,128,997,133.3C1033.8,139,1071,181,1108,176C1144.6,171,1182,117,1218,117.3C1255.4,117,1292,171,1329,192C1366.2,213,1403,203,1422,197.3L1440,192L1440,0L1421.5,0C1403.1,0,1366,0,1329,0C1292.3,0,1255,0,1218,0C1181.5,0,1145,0,1108,0C1070.8,0,1034,0,997,0C960,0,923,0,886,0C849.2,0,812,0,775,0C738.5,0,702,0,665,0C627.7,0,591,0,554,0C516.9,0,480,0,443,0C406.2,0,369,0,332,0C295.4,0,258,0,222,0C184.6,0,148,0,111,0C73.8,0,37,0,18,0L0,0Z"></path></svg>